HIERARCHY
ROOT Hips
{
	OFFSET 0.000000 89.005402 0.000000
	CHANNELS 6 Xposition Yposition Zposition Xrotation Yrotation Zrotation
	JOINT Spine
	{
		OFFSET 0.116900 10.681000 0.373400
		CHANNELS 3 Xrotation Yrotation Zrotation
		JOINT Spine1
		{
			OFFSET 0.000000 13.840401 0.053500
			CHANNELS 3 Xrotation Yrotation Zrotation
			JOINT Spine2
			{
				OFFSET 0.000000 14.712700 -0.366200
				CHANNELS 3 Xrotation Yrotation Zrotation
				JOINT Neck
				{
					OFFSET 0.000000 35.415497 -3.314200
					CHANNELS 3 Xrotation Yrotation Zrotation
					JOINT Head
					{
						OFFSET 0.000000 16.899200 1.218300
						CHANNELS 3 Xrotation Yrotation Zrotation
						JOINT HeadTop_End
						{
							OFFSET 0.000000 22.206207 2.192500
							CHANNELS 3 Xrotation Yrotation Zrotation
							End Site
							{
								OFFSET 0.000000 22.314178 0.000000
							}
						}
					}
				}
				JOINT LeftShoulder
				{
					OFFSET 12.896400 26.716293 -4.548400
					CHANNELS 3 Xrotation Yrotation Zrotation
					JOINT LeftArm
					{
						OFFSET 19.027000 -4.857010 -1.718400
						CHANNELS 3 Xrotation Yrotation Zrotation
						JOINT LeftForeArm
						{
							OFFSET 24.179897 0.000000 0.000000
							CHANNELS 3 Xrotation Yrotation Zrotation
							JOINT LeftHand
							{
								OFFSET 27.156403 0.000000 0.000000
								CHANNELS 3 Xrotation Yrotation Zrotation
								JOINT LeftHandIndex1
								{
									OFFSET 16.441200 0.000000 0.000000
									CHANNELS 3 Xrotation Yrotation Zrotation
									JOINT LeftHandIndex2
									{
										OFFSET 4.821899 0.000000 0.000000
										CHANNELS 3 Xrotation Yrotation Zrotation
										JOINT LeftHandIndex3
										{
											OFFSET 6.386497 0.000000 0.000000
											CHANNELS 3 Xrotation Yrotation Zrotation
											JOINT LeftHandIndex4
											{
												OFFSET 5.188988 0.000000 0.000000
												CHANNELS 3 Xrotation Yrotation Zrotation
												End Site
												{
													OFFSET -0.178703 5.185913 0.000177
												}
											}
										}
									}
								}
								JOINT LeftHandThumb1
								{
									OFFSET 6.534897 -5.032593 5.900300
									CHANNELS 3 Xrotation Yrotation Zrotation
									JOINT LeftHandThumb2
									{
										OFFSET 3.818176 -2.204422 2.204423
										CHANNELS 3 Xrotation Yrotation Zrotation
										JOINT LeftHandThumb3
										{
											OFFSET 3.252098 -1.877594 1.877601
											CHANNELS 3 Xrotation Yrotation Zrotation
											JOINT LeftHandThumb4
											{
												OFFSET 5.251778 -3.032120 3.032117
												CHANNELS 3 Xrotation Yrotation Zrotation
												End Site
												{
													OFFSET 0.000023 6.780014 0.000000
												}
											}
										}
									}
								}
							}
						}
					}
				}
				JOINT RightShoulder
				{
					OFFSET -12.896300 26.716293 -4.548400
					CHANNELS 3 Xrotation Yrotation Zrotation
					JOINT RightArm
					{
						OFFSET -19.027000 -4.857010 -1.718400
						CHANNELS 3 Xrotation Yrotation Zrotation
						JOINT RightForeArm
						{
							OFFSET -24.179897 0.000000 0.000000
							CHANNELS 3 Xrotation Yrotation Zrotation
							JOINT RightHand
							{
								OFFSET -27.156403 0.000000 0.000000
								CHANNELS 3 Xrotation Yrotation Zrotation
								JOINT RightHandThumb1
								{
									OFFSET -6.591202 -4.852203 5.988100
									CHANNELS 3 Xrotation Yrotation Zrotation
									JOINT RightHandThumb2
									{
										OFFSET -3.818176 -2.204422 2.204423
										CHANNELS 3 Xrotation Yrotation Zrotation
										JOINT RightHandThumb3
										{
											OFFSET -3.252098 -1.877594 1.877601
											CHANNELS 3 Xrotation Yrotation Zrotation
											JOINT RightHandThumb4
											{
												OFFSET -5.251778 -3.032120 3.032117
												CHANNELS 3 Xrotation Yrotation Zrotation
												End Site
												{
													OFFSET -0.000023 6.780014 0.000000
												}
											}
										}
									}
								}
								JOINT RightHandIndex1
								{
									OFFSET -16.029404 0.000000 0.000000
									CHANNELS 3 Xrotation Yrotation Zrotation
									JOINT RightHandIndex2
									{
										OFFSET -5.213303 0.000000 0.000000
										CHANNELS 3 Xrotation Yrotation Zrotation
										JOINT RightHandIndex3
										{
											OFFSET -6.386528 0.000000 0.000000
											CHANNELS 3 Xrotation Yrotation Zrotation
											JOINT RightHandIndex4
											{
												OFFSET -5.189026 0.000000 0.000000
												CHANNELS 3 Xrotation Yrotation Zrotation
												End Site
												{
													OFFSET 0.236702 5.183624 0.001972
												}
											}
										}
									}
								}
							}
						}
					}
				}
			}
		}
	}
	JOINT LeftUpLeg
	{
		OFFSET 14.073000 -7.904099 -1.463000
		CHANNELS 3 Xrotation Yrotation Zrotation
		JOINT LeftLeg
		{
			OFFSET -0.109806 -34.073280 4.093200
			CHANNELS 3 Xrotation Yrotation Zrotation
			JOINT LeftFoot
			{
				OFFSET 0.109806 -29.899420 -6.319000
				CHANNELS 3 Xrotation Yrotation Zrotation
				JOINT LeftToeBase
				{
					OFFSET 1.551100 -14.988700 20.535801
					CHANNELS 3 Xrotation Yrotation Zrotation
					JOINT LeftToe_End
					{
						OFFSET 0.221200 0.570800 13.248301
						CHANNELS 3 Xrotation Yrotation Zrotation
						End Site
						{
							OFFSET 0.000000 13.262435 0.000000
						}
					}
				}
			}
		}
	}
	JOINT RightUpLeg
	{
		OFFSET -13.839300 -7.904099 -1.463000
		CHANNELS 3 Xrotation Yrotation Zrotation
		JOINT RightLeg
		{
			OFFSET 0.109694 -34.073219 4.093300
			CHANNELS 3 Xrotation Yrotation Zrotation
			JOINT RightFoot
			{
				OFFSET -0.109694 -29.899384 -6.319200
				CHANNELS 3 Xrotation Yrotation Zrotation
				JOINT RightToeBase
				{
					OFFSET -1.551100 -14.988700 20.535801
					CHANNELS 3 Xrotation Yrotation Zrotation
					JOINT RightToe_End
					{
						OFFSET -0.221200 0.570900 13.248299
						CHANNELS 3 Xrotation Yrotation Zrotation
						End Site
						{
							OFFSET 0.000000 13.262440 0.000000
						}
					}
				}
			}
		}
	}
}
MOTION
Frames: 7
Frame Time: 0.033333
-0.314653 88.245270 1.102632 -2.553024 -5.067162 0.132743 2.391722 -0.107474 -0.829206 4.823724 -0.196314 -0.678262 4.822374 -0.203636 -0.685278 -7.330657 1.556514 -0.401657 1.176611 6.623068 1.872974 -0.000000 -0.000000 0.000000 0.627200 2.105219 -6.049666 24.376218 -48.650003 -40.635664 0.000001 -27.548012 -0.000006 -25.325494 20.556800 -7.942582 0.058203 0.895297 -7.440296 0.058210 0.895307 -7.440286 0.014560 0.448600 -3.719912 -0.000003 0.000000 0.000000 -1.593598 7.402368 6.696194 5.056529 22.083788 1.753615 0.055930 8.625989 3.219161 -0.000000 -0.000002 -0.000003 4.011860 13.821733 8.923000 20.907119 43.163316 44.724980 0.000007 19.402727 -0.000008 -20.835344 -10.627548 -2.102228 -1.870806 -5.360482 -6.862601 5.790414 -21.760513 -1.082737 -0.678320 -6.408215 -2.785378 0.000002 -0.000002 -0.000001 0.055309 -0.877089 7.216613 0.055303 -0.877077 7.216636 0.013833 -0.439401 3.608103 -0.000004 -0.000001 0.000000 -5.928179 9.210436 3.289539 14.262994 9.649564 2.012856 -5.117251 3.017562 -5.211223 -0.000045 0.000000 0.000000 -0.000000 0.000000 -0.000000 -6.073788 -12.167258 -2.425407 15.255166 -7.839724 -3.478186 -6.760439 -0.826993 4.637213 -0.009814 -0.000001 0.000001 0.000000 0.000000 0.000000 
-0.329122 88.240913 1.116652 -2.627898 -5.095407 0.159656 2.408383 -0.106313 -0.826587 4.856547 -0.196423 -0.707846 4.855177 -0.203638 -0.714776 -7.339746 1.554535 -0.375421 1.184128 6.634077 1.881227 -0.000000 0.000000 -0.000000 0.625826 2.092952 -6.025889 24.159663 -48.467429 -40.768337 0.000010 -27.552519 0.000006 -25.301562 20.556790 -7.810792 0.058222 0.895336 -7.440615 0.058216 0.895344 -7.440577 0.014568 0.448611 -3.720059 0.000001 0.000000 0.000001 -1.593601 7.402883 6.696268 5.056815 22.087609 1.753854 0.056080 8.627887 3.219335 -0.000003 0.000001 -0.000000 4.006522 13.845386 9.025709 21.002217 43.245602 44.578432 -0.000010 19.259457 -0.000000 -20.507238 -10.433843 -1.860161 -1.870518 -5.340874 -6.859529 5.770249 -21.518622 -1.068839 -0.688635 -6.287599 -2.773219 0.000003 0.000000 0.000001 0.049741 -0.831959 6.843483 0.049747 -0.831960 6.843492 0.012448 -0.416730 3.421561 -0.000002 -0.000001 0.000001 -5.798238 9.016539 3.290530 14.266243 9.651595 1.879243 -5.136078 3.228318 -5.157781 -0.000173 0.000000 -0.000000 0.000000 0.000000 0.000000 -6.027596 -12.151245 -2.461605 15.339280 -7.819852 -3.474322 -6.823893 -0.827542 4.637297 -0.009942 0.000000 0.000000 0.000000 0.000000 0.000000 
-0.342089 88.234978 1.142158 -2.686388 -5.135229 0.156177 2.423948 -0.107564 -0.825290 4.887050 -0.199899 -0.725711 4.885649 -0.207040 -0.732634 -7.363812 1.552649 -0.343549 1.216201 6.658197 1.881892 -0.000000 -0.000000 -0.000000 0.627544 2.098917 -5.991975 24.007222 -48.352559 -40.858472 -0.000002 -27.542881 0.000001 -25.350621 20.395718 -7.820109 0.058234 0.895454 -7.441539 0.058233 0.895432 -7.441414 0.014562 0.448669 -3.720469 -0.000000 0.000001 -0.000001 -1.593601 7.402783 6.696264 5.057396 22.095597 1.754375 0.056439 8.631874 3.219707 0.000001 -0.000001 -0.000002 3.999390 13.853547 9.121210 21.073814 43.404305 44.438300 0.000005 18.940154 0.000003 -19.806389 -10.136037 -1.347559 -1.870759 -5.356908 -6.862029 5.759347 -21.387838 -1.061316 -0.694214 -6.222392 -2.766621 0.000002 0.000001 0.000002 0.041733 -0.762257 6.267620 0.041741 -0.762252 6.267627 0.010446 -0.381689 3.133669 0.000000 -0.000000 -0.000000 -5.706708 8.904498 3.333655 14.319720 9.649363 1.760551 -5.195122 3.383199 -5.121145 0.000013 0.000002 0.000001 0.000000 -0.000000 -0.000000 -5.966881 -12.118819 -2.470331 15.390440 -7.806367 -3.444802 -6.875569 -0.827659 4.623595 -0.010109 -0.000001 0.000001 0.000000 0.000000 0.000000 
-0.353844 88.227417 1.173801 -2.762020 -5.183556 0.127821 2.441483 -0.111227 -0.823739 4.921732 -0.211453 -0.730315 4.920301 -0.218556 -0.735851 -7.372668 1.550232 -0.327010 1.237745 6.676390 1.878698 0.000000 -0.000000 -0.000000 0.632139 2.109281 -5.967019 23.950644 -48.364518 -40.898674 -0.000008 -27.470946 -0.000007 -25.519006 20.160290 -7.936031 0.058255 0.895629 -7.443099 0.058256 0.895598 -7.442779 0.014571 0.448749 -3.721146 0.000001 -0.000001 0.000000 -1.593536 7.399534 6.695771 5.057904 22.102579 1.754809 0.056728 8.635361 3.220023 -0.000000 -0.000000 -0.000001 3.998383 13.862559 9.147512 21.101634 43.600168 44.366324 0.000004 18.561179 -0.000000 -18.697404 -9.810260 -0.598739 -1.871278 -5.394118 -6.867810 5.754129 -21.325097 -1.057658 -0.696884 -6.191126 -2.763463 0.000002 0.000001 -0.000001 0.032588 -0.673702 5.537079 0.032585 -0.673712 5.537075 0.008153 -0.337246 2.768435 0.000001 -0.000001 -0.000000 -5.617115 8.915764 3.408341 14.413133 9.642734 1.669282 -5.290514 3.449860 -5.105607 0.000930 0.000005 -0.000000 -0.000000 0.000002 -0.000000 -5.870364 -12.135299 -2.463091 15.423163 -7.737356 -3.399076 -6.925479 -0.826330 4.589759 -0.009725 0.000005 0.000000 -0.000000 0.000000 0.000000 
-0.368053 88.219879 1.207731 -2.857794 -5.239007 0.084135 2.463293 -0.121692 -0.820323 4.965460 -0.233701 -0.731213 4.963971 -0.240755 -0.736670 -7.349519 1.549202 -0.321142 1.199018 6.693960 1.866563 0.000000 -0.000000 -0.000000 0.638325 2.085584 -5.954767 23.957660 -48.430716 -40.909401 0.000001 -27.416183 0.000007 -25.763019 20.084779 -8.057836 0.058285 0.895895 -7.445220 0.058268 0.895822 -7.444660 0.014594 0.448866 -3.722083 0.000003 -0.000000 0.000001 -1.593370 7.390645 6.694422 5.057971 22.103401 1.754868 0.056758 8.635771 3.220070 -0.000001 0.000001 0.000003 4.010284 13.911395 9.130366 21.166731 43.700312 44.336544 0.000002 18.380859 -0.000000 -17.524507 -9.526207 0.011843 -1.871942 -5.438110 -6.874681 5.750998 -21.287326 -1.055437 -0.698465 -6.172282 -2.761529 0.000003 0.000000 0.000002 0.023470 -0.572104 4.699902 0.023488 -0.572110 4.699891 0.005886 -0.286309 2.349868 -0.000001 -0.000000 0.000000 -5.516928 9.042744 3.511487 14.527640 9.632621 1.587121 -5.410810 3.440031 -5.095871 0.002621 -0.000002 0.000001 -0.000000 -0.000000 0.000000 -5.742136 -12.213825 -2.448089 15.444371 -7.603078 -3.336481 -6.976442 -0.823202 4.529949 -0.009785 -0.000001 0.000000 -0.000000 0.000000 -0.000000 
-0.391516 88.214966 1.242176 -2.964617 -5.318401 0.026522 2.494084 -0.132796 -0.815456 5.027477 -0.257486 -0.729219 5.025903 -0.264575 -0.735840 -7.311376 1.552929 -0.302666 1.095755 6.750336 1.818624 -0.000000 -0.000000 -0.000000 0.654552 2.002071 -5.915842 24.003100 -48.491966 -40.885058 -0.000004 -27.446379 -0.000005 -25.998818 20.227692 -8.213892 0.058333 0.896213 -7.447923 0.058318 0.896130 -7.447021 0.014590 0.448998 -3.723284 0.000000 0.000001 0.000000 -1.593044 7.373618 6.691887 5.057212 22.092851 1.754187 0.056319 8.630508 3.219577 -0.000002 0.000002 -0.000000 4.034422 13.979479 9.030356 21.236305 43.724426 44.430630 0.000003 18.487767 0.000006 -16.694249 -9.287498 0.148024 -1.872474 -5.474408 -6.880321 5.746365 -21.231416 -1.052146 -0.700856 -6.144402 -2.758679 -0.000001 -0.000001 -0.000001 0.015379 -0.463240 3.804126 0.015385 -0.463254 3.804113 0.003844 -0.231752 1.902045 0.000002 -0.000002 -0.000000 -5.398392 9.226362 3.654037 14.646579 9.609823 1.475786 -5.542381 3.441095 -5.080720 0.005298 -0.000000 -0.000000 -0.000000 -0.000000 0.000000 -5.585461 -12.302783 -2.404801 15.434803 -7.448867 -3.277832 -7.014357 -0.818960 4.455168 -0.009756 0.000000 0.000000 -0.000000 0.000000 0.000000 
-0.429609 88.217087 1.277160 -3.094395 -5.430597 -0.053516 2.536525 -0.145249 -0.820979 5.112959 -0.285120 -0.725242 5.111285 -0.292453 -0.732911 -7.283026 1.572882 -0.265466 1.017829 6.916456 1.697829 0.000000 -0.000000 0.000000 0.671263 1.902334 -5.807915 24.115822 -48.588101 -40.808615 0.000006 -27.508213 0.000003 -26.143912 20.393697 -8.424015 0.058381 0.896597 -7.451175 0.058363 0.896452 -7.449902 0.014612 0.449190 -3.724708 -0.000003 0.000001 -0.000001 -1.592506 7.345913 6.687712 5.055210 22.065763 1.752471 0.055175 8.616983 3.218335 -0.000000 0.000002 0.000001 4.072574 13.951156 8.597172 21.116344 43.928614 44.941501 -0.000002 18.842538 -0.000008 -16.426972 -9.260521 -0.056711 -1.872672 -5.488596 -6.882521 5.736626 -21.114319 -1.045315 -0.705842 -6.085995 -2.752731 0.000003 -0.000001 0.000001 0.008932 -0.352982 2.897775 0.008935 -0.352992 2.897743 0.002226 -0.176542 1.448877 -0.000003 -0.000001 -0.000000 -5.228955 9.375481 3.840994 14.756991 9.570406 1.306282 -5.681937 3.577356 -5.047031 0.010407 -0.000009 0.000001 -0.000000 -0.000000 0.000000 -5.366312 -12.409585 -2.283692 15.346277 -7.273503 -3.292631 -7.016491 -0.813750 4.392384 -0.009300 0.000000 0.000000 0.000000 0.000000 0.000000 
